<svg width="200" height="200" viewBox="0 0 200 200" fill="none" xmlns="http://www.w3.org/2000/svg">
<path d="M48.713 174.696H151.586C161.924 174.696 170.302 166.311 170.302 155.981V43.7148C170.302 33.3808 161.924 25 151.586 25H48.713C38.376 25 30 33.3808 30 43.7148V155.981C30.001 166.312 38.377 174.696 48.713 174.696Z" fill="url(#paint0_linear_2866_317)"/>
<path d="M48.713 174.696H151.586C161.924 174.696 170.302 166.311 170.302 155.981V140.239C150.731 136.6 126.451 134.442 100.151 134.442C73.8509 134.442 49.571 136.6 30.001 140.239V155.981C30.001 166.312 38.377 174.696 48.713 174.696Z" fill="url(#paint1_linear_2866_317)"/>
<path d="M73.8589 60.2837V73.5278H85.1559V60.2837H73.8589ZM118.933 60.2837V73.5278H130.231V60.2837H118.933ZM73.8589 112.066V125.312H85.1559V112.066H73.8589ZM118.933 112.066V125.312H130.231V112.066H118.933ZM54.7759 48.4287V94.1299H60.5449V55.0728H98.4709V94.1299H105.621V55.0728H143.544V94.1299H152.028V100.36H143.544L105.621 100.389L98.4709 100.36L60.5449 100.389L54.7759 100.36V146.305H60.5449V106.856H98.4709V146.305H105.621V106.856H143.544V146.305H152.028V152.537H54.7759H48.2749V100.359V48.4268H54.7759V48.4287Z" fill="#59E4E4"/>
<path d="M146.196 157.773H157.439V146.64H163.509V163.845H146.196V157.773ZM42.863 146.64V157.773H54.106V163.845H36.793V146.64H42.863ZM54.106 43.1929H42.863V54.5469H36.793V37.125H54.106V43.1929ZM157.439 43.1929H146.196V37.125H163.509V54.5469H157.439V43.1929Z" fill="#39DBDB"/>
<path d="M48.2749 136.456C50.4059 136.196 52.5739 135.948 54.7759 135.718V146.306H60.5449V135.16C72.4199 134.098 85.1779 133.5 98.4709 133.455V146.307H105.621V133.483C118.965 133.635 131.728 134.344 143.544 135.518V146.307H152.028V152.539H54.7759H48.2749V136.456Z" fill="url(#paint2_linear_2866_317)"/>
<defs>
<linearGradient id="paint0_linear_2866_317" x1="27.7336" y1="127.828" x2="176.4" y2="70.3895" gradientUnits="userSpaceOnUse">
<stop offset="0.2151" stop-color="#4835EA"/>
<stop offset="1" stop-color="#9868F8"/>
</linearGradient>
<linearGradient id="paint1_linear_2866_317" x1="31.202" y1="130.861" x2="168.937" y2="178.623" gradientUnits="userSpaceOnUse">
<stop stop-color="#1933BE"/>
<stop offset="0.8763" stop-color="#2A9CE2"/>
</linearGradient>
<linearGradient id="paint2_linear_2866_317" x1="48.2749" y1="142.996" x2="152.028" y2="142.996" gradientUnits="userSpaceOnUse">
<stop stop-color="#269DD4"/>
<stop offset="1" stop-color="#39DBDB"/>
</linearGradient>
</defs>
</svg>
